<?xml version="1.0" standalone="no"?>
<!DOCTYPE svg PUBLIC "-//W3C//DTD SVG 20010904//EN"
 "http://www.w3.org/TR/2001/REC-SVG-20010904/DTD/svg10.dtd">
<svg version="1.0" xmlns="http://www.w3.org/2000/svg"
 width="512.000000pt" height="512.000000pt" viewBox="0 0 512.000000 512.000000"
 preserveAspectRatio="xMidYMid meet">

<g transform="translate(0.000000,512.000000) scale(0.100000,-0.100000)"
fill="#000000" stroke="none">
<path d="M4115 5106 c-142 -28 -270 -88 -380 -177 -33 -26 -778 -767 -1656
-1646 l-1597 -1598 -241 -725 c-132 -399 -241 -738 -241 -754 0 -52 24 -110
60 -146 36 -36 94 -60 146 -60 16 0 355 109 754 241 l725 241 1608 1607 c885
883 1629 1633 1654 1666 255 336 222 816 -77 1115 -155 155 -347 238 -570 246
-74 2 -140 -1 -185 -10z m247 -397 c127 -27 242 -114 301 -227 98 -188 66
-390 -83 -537 l-45 -45 -318 318 -318 319 59 55 c115 106 258 148 404 117z
m-422 -774 l315 -315 -1338 -1338 -1337 -1337 -317 318 -318 317 1335 1335
c734 734 1337 1335 1340 1335 3 0 147 -142 320 -315z m-2738 -3186 c-9 -8
-675 -230 -679 -226 -2 3 199 614 222 676 4 10 80 -59 235 -214 126 -126 226
-232 222 -236z"/>
</g>
</svg>
