<?xml version="1.0" standalone="no"?>
<!DOCTYPE svg PUBLIC "-//W3C//DTD SVG 20010904//EN"
 "http://www.w3.org/TR/2001/REC-SVG-20010904/DTD/svg10.dtd">
<svg version="1.0" xmlns="http://www.w3.org/2000/svg"
 width="512.000000pt" height="512.000000pt" viewBox="0 0 512.000000 512.000000"
 preserveAspectRatio="xMidYMid meet">

<g transform="translate(0.000000,512.000000) scale(0.100000,-0.100000)"
fill="#000000" stroke="none">
<path d="M320 2650 l0 -1760 1525 0 1525 0 0 160 0 160 -1365 0 -1365 0 0 449
0 449 193 -78 c105 -43 227 -88 270 -99 363 -95 744 -19 1048 208 48 36 213
165 366 287 153 121 302 234 330 252 253 153 573 169 839 43 110 -52 146 -78
392 -276 l211 -170 1 -42 0 -43 160 0 160 0 0 1110 0 1110 -2145 0 -2145 0 0
-1760z m3970 740 l0 -710 -154 123 c-172 137 -295 208 -446 257 -359 117 -755
62 -1065 -151 -38 -26 -212 -160 -385 -298 -272 -217 -330 -258 -425 -306
-159 -78 -208 -89 -400 -90 -210 0 -219 3 -631 177 l-144 60 0 824 0 824 1825
0 1825 0 0 -710z"/>
<path d="M1525 3839 c-174 -17 -344 -133 -423 -289 -34 -68 -62 -178 -62 -245
0 -132 62 -276 160 -376 105 -107 229 -159 379 -159 158 0 268 45 377 154 211
210 219 528 19 744 -122 132 -271 189 -450 171z m156 -336 c163 -84 163 -312
-1 -396 -87 -45 -184 -30 -254 40 -115 113 -71 314 81 369 60 21 113 17 174
-13z"/>
<path d="M3815 1735 l-329 -336 112 -112 112 -112 135 140 134 140 0 -372 1
-373 160 0 160 0 0 372 0 373 138 -137 137 -137 113 110 114 109 -303 307
c-166 170 -314 321 -329 336 l-27 28 -328 -336z"/>
</g>
</svg>
